<mxfile host="Electron" modified="2023-11-07T19:17:59.989Z" agent="Mozilla/5.0 (Windows NT 10.0; Win64; x64) AppleWebKit/537.36 (KHTML, like Gecko) draw.io/21.8.2 Chrome/114.0.5735.289 Electron/25.8.1 Safari/537.36" etag="9vxTyv7WbHE74OnTRtFQ" version="21.8.2" type="device">
  <diagram name="Страница 1" id="_ji-gmw8htz-aoYBTib-">
    <mxGraphModel dx="1276" dy="562" grid="1" gridSize="10" guides="1" tooltips="1" connect="1" arrows="1" fold="1" page="1" pageScale="1" pageWidth="827" pageHeight="1169" math="0" shadow="0">
      <root>
        <mxCell id="0" />
        <mxCell id="1" parent="0" />
        <mxCell id="EKV1BVhTPsgdHMp3hNBj-4" style="edgeStyle=orthogonalEdgeStyle;rounded=0;orthogonalLoop=1;jettySize=auto;html=1;entryX=0.5;entryY=0;entryDx=0;entryDy=0;" parent="1" source="EKV1BVhTPsgdHMp3hNBj-2" target="EKV1BVhTPsgdHMp3hNBj-3" edge="1">
          <mxGeometry relative="1" as="geometry" />
        </mxCell>
        <mxCell id="EKV1BVhTPsgdHMp3hNBj-2" value="Start" style="rounded=1;whiteSpace=wrap;html=1;" parent="1" vertex="1">
          <mxGeometry x="620" y="120" width="120" height="60" as="geometry" />
        </mxCell>
        <mxCell id="EKV1BVhTPsgdHMp3hNBj-13" style="edgeStyle=orthogonalEdgeStyle;rounded=0;orthogonalLoop=1;jettySize=auto;html=1;entryX=0.5;entryY=0;entryDx=0;entryDy=0;" parent="1" source="EKV1BVhTPsgdHMp3hNBj-3" target="EKV1BVhTPsgdHMp3hNBj-5" edge="1">
          <mxGeometry relative="1" as="geometry" />
        </mxCell>
        <mxCell id="EKV1BVhTPsgdHMp3hNBj-3" value="numbers = [1, 8, 3, 8, 2, 6, 8, 8]&lt;br&gt;size = numbers.lenght&lt;br&gt;index = 0&lt;br&gt;maximum = numbers[index]&lt;br&gt;count_maximal = 0" style="shape=parallelogram;perimeter=parallelogramPerimeter;whiteSpace=wrap;html=1;fixedSize=1;" parent="1" vertex="1">
          <mxGeometry x="570" y="210" width="220" height="90" as="geometry" />
        </mxCell>
        <mxCell id="EKV1BVhTPsgdHMp3hNBj-14" style="edgeStyle=orthogonalEdgeStyle;rounded=0;orthogonalLoop=1;jettySize=auto;html=1;entryX=0;entryY=0.5;entryDx=0;entryDy=0;" parent="1" source="EKV1BVhTPsgdHMp3hNBj-5" target="EKV1BVhTPsgdHMp3hNBj-11" edge="1">
          <mxGeometry relative="1" as="geometry" />
        </mxCell>
        <mxCell id="EKV1BVhTPsgdHMp3hNBj-17" value="No" style="edgeLabel;html=1;align=center;verticalAlign=middle;resizable=0;points=[];" parent="EKV1BVhTPsgdHMp3hNBj-14" vertex="1" connectable="0">
          <mxGeometry x="0.072" y="1" relative="1" as="geometry">
            <mxPoint as="offset" />
          </mxGeometry>
        </mxCell>
        <mxCell id="EKV1BVhTPsgdHMp3hNBj-26" style="edgeStyle=orthogonalEdgeStyle;rounded=0;orthogonalLoop=1;jettySize=auto;html=1;entryX=0.5;entryY=0;entryDx=0;entryDy=0;" parent="1" source="EKV1BVhTPsgdHMp3hNBj-5" target="EKV1BVhTPsgdHMp3hNBj-6" edge="1">
          <mxGeometry relative="1" as="geometry" />
        </mxCell>
        <mxCell id="EKV1BVhTPsgdHMp3hNBj-32" value="Yes" style="edgeLabel;html=1;align=center;verticalAlign=middle;resizable=0;points=[];" parent="EKV1BVhTPsgdHMp3hNBj-26" vertex="1" connectable="0">
          <mxGeometry x="-0.1153" y="-2" relative="1" as="geometry">
            <mxPoint as="offset" />
          </mxGeometry>
        </mxCell>
        <mxCell id="EKV1BVhTPsgdHMp3hNBj-5" value="index &amp;lt; number.leght" style="rhombus;whiteSpace=wrap;html=1;" parent="1" vertex="1">
          <mxGeometry x="600" y="330" width="160" height="80" as="geometry" />
        </mxCell>
        <mxCell id="EKV1BVhTPsgdHMp3hNBj-20" style="edgeStyle=orthogonalEdgeStyle;rounded=0;orthogonalLoop=1;jettySize=auto;html=1;entryX=0.5;entryY=0;entryDx=0;entryDy=0;" parent="1" source="EKV1BVhTPsgdHMp3hNBj-6" target="EKV1BVhTPsgdHMp3hNBj-7" edge="1">
          <mxGeometry relative="1" as="geometry" />
        </mxCell>
        <mxCell id="EKV1BVhTPsgdHMp3hNBj-22" value="Yes" style="edgeLabel;html=1;align=center;verticalAlign=middle;resizable=0;points=[];" parent="EKV1BVhTPsgdHMp3hNBj-20" vertex="1" connectable="0">
          <mxGeometry x="-0.5713" y="-2" relative="1" as="geometry">
            <mxPoint as="offset" />
          </mxGeometry>
        </mxCell>
        <mxCell id="EKV1BVhTPsgdHMp3hNBj-21" style="edgeStyle=orthogonalEdgeStyle;rounded=0;orthogonalLoop=1;jettySize=auto;html=1;" parent="1" source="EKV1BVhTPsgdHMp3hNBj-6" target="EKV1BVhTPsgdHMp3hNBj-8" edge="1">
          <mxGeometry relative="1" as="geometry" />
        </mxCell>
        <mxCell id="EKV1BVhTPsgdHMp3hNBj-31" value="No" style="edgeLabel;html=1;align=center;verticalAlign=middle;resizable=0;points=[];" parent="EKV1BVhTPsgdHMp3hNBj-21" vertex="1" connectable="0">
          <mxGeometry x="-0.3124" y="1" relative="1" as="geometry">
            <mxPoint as="offset" />
          </mxGeometry>
        </mxCell>
        <mxCell id="EKV1BVhTPsgdHMp3hNBj-6" value="numbers[index] &amp;gt; maximum" style="rhombus;whiteSpace=wrap;html=1;" parent="1" vertex="1">
          <mxGeometry x="600" y="460" width="160" height="80" as="geometry" />
        </mxCell>
        <mxCell id="EKV1BVhTPsgdHMp3hNBj-30" style="edgeStyle=orthogonalEdgeStyle;rounded=0;orthogonalLoop=1;jettySize=auto;html=1;entryX=0.5;entryY=0;entryDx=0;entryDy=0;" parent="1" source="EKV1BVhTPsgdHMp3hNBj-7" target="EKV1BVhTPsgdHMp3hNBj-10" edge="1">
          <mxGeometry relative="1" as="geometry">
            <mxPoint x="680" y="810" as="targetPoint" />
            <Array as="points">
              <mxPoint x="1040" y="810" />
              <mxPoint x="680" y="810" />
            </Array>
          </mxGeometry>
        </mxCell>
        <mxCell id="EKV1BVhTPsgdHMp3hNBj-7" value="maximum = numbers[index]&lt;br&gt;count_maximal = 1" style="rounded=0;whiteSpace=wrap;html=1;" parent="1" vertex="1">
          <mxGeometry x="930" y="564" width="210" height="60" as="geometry" />
        </mxCell>
        <mxCell id="EKV1BVhTPsgdHMp3hNBj-24" style="edgeStyle=orthogonalEdgeStyle;rounded=0;orthogonalLoop=1;jettySize=auto;html=1;entryX=0.5;entryY=0;entryDx=0;entryDy=0;" parent="1" source="EKV1BVhTPsgdHMp3hNBj-8" target="EKV1BVhTPsgdHMp3hNBj-9" edge="1">
          <mxGeometry relative="1" as="geometry" />
        </mxCell>
        <mxCell id="EKV1BVhTPsgdHMp3hNBj-34" value="Yes" style="edgeLabel;html=1;align=center;verticalAlign=middle;resizable=0;points=[];" parent="EKV1BVhTPsgdHMp3hNBj-24" vertex="1" connectable="0">
          <mxGeometry x="-0.5793" y="-2" relative="1" as="geometry">
            <mxPoint as="offset" />
          </mxGeometry>
        </mxCell>
        <mxCell id="EKV1BVhTPsgdHMp3hNBj-25" style="edgeStyle=orthogonalEdgeStyle;rounded=0;orthogonalLoop=1;jettySize=auto;html=1;entryX=0.5;entryY=0;entryDx=0;entryDy=0;" parent="1" source="EKV1BVhTPsgdHMp3hNBj-8" target="EKV1BVhTPsgdHMp3hNBj-10" edge="1">
          <mxGeometry relative="1" as="geometry" />
        </mxCell>
        <mxCell id="EKV1BVhTPsgdHMp3hNBj-33" value="No" style="edgeLabel;html=1;align=center;verticalAlign=middle;resizable=0;points=[];" parent="EKV1BVhTPsgdHMp3hNBj-25" vertex="1" connectable="0">
          <mxGeometry x="-0.4941" y="-2" relative="1" as="geometry">
            <mxPoint as="offset" />
          </mxGeometry>
        </mxCell>
        <mxCell id="EKV1BVhTPsgdHMp3hNBj-8" value="numbers[index] == maximum" style="rhombus;whiteSpace=wrap;html=1;" parent="1" vertex="1">
          <mxGeometry x="600" y="630" width="160" height="80" as="geometry" />
        </mxCell>
        <mxCell id="EKV1BVhTPsgdHMp3hNBj-29" style="edgeStyle=orthogonalEdgeStyle;rounded=0;orthogonalLoop=1;jettySize=auto;html=1;entryX=0.5;entryY=0;entryDx=0;entryDy=0;" parent="1" source="EKV1BVhTPsgdHMp3hNBj-9" target="EKV1BVhTPsgdHMp3hNBj-10" edge="1">
          <mxGeometry relative="1" as="geometry">
            <Array as="points">
              <mxPoint x="915" y="800" />
              <mxPoint x="680" y="800" />
            </Array>
          </mxGeometry>
        </mxCell>
        <mxCell id="EKV1BVhTPsgdHMp3hNBj-9" value="count_maximal = count_maximal +&amp;nbsp;1" style="rounded=0;whiteSpace=wrap;html=1;" parent="1" vertex="1">
          <mxGeometry x="810" y="709" width="210" height="60" as="geometry" />
        </mxCell>
        <mxCell id="EKV1BVhTPsgdHMp3hNBj-27" style="edgeStyle=orthogonalEdgeStyle;rounded=0;orthogonalLoop=1;jettySize=auto;html=1;entryX=0;entryY=0.5;entryDx=0;entryDy=0;" parent="1" source="EKV1BVhTPsgdHMp3hNBj-10" target="EKV1BVhTPsgdHMp3hNBj-5" edge="1">
          <mxGeometry relative="1" as="geometry">
            <Array as="points">
              <mxPoint x="680" y="920" />
              <mxPoint x="500" y="920" />
              <mxPoint x="500" y="370" />
            </Array>
          </mxGeometry>
        </mxCell>
        <mxCell id="EKV1BVhTPsgdHMp3hNBj-10" value="index = index +&amp;nbsp;1" style="rounded=0;whiteSpace=wrap;html=1;" parent="1" vertex="1">
          <mxGeometry x="575" y="830" width="210" height="60" as="geometry" />
        </mxCell>
        <mxCell id="EKV1BVhTPsgdHMp3hNBj-15" style="edgeStyle=orthogonalEdgeStyle;rounded=0;orthogonalLoop=1;jettySize=auto;html=1;entryX=0;entryY=0.5;entryDx=0;entryDy=0;" parent="1" source="EKV1BVhTPsgdHMp3hNBj-11" target="EKV1BVhTPsgdHMp3hNBj-12" edge="1">
          <mxGeometry relative="1" as="geometry" />
        </mxCell>
        <mxCell id="EKV1BVhTPsgdHMp3hNBj-11" value="print(count_maximal)" style="shape=document;whiteSpace=wrap;html=1;boundedLbl=1;" parent="1" vertex="1">
          <mxGeometry x="810" y="330" width="210" height="80" as="geometry" />
        </mxCell>
        <mxCell id="EKV1BVhTPsgdHMp3hNBj-12" value="Finish" style="rounded=1;whiteSpace=wrap;html=1;" parent="1" vertex="1">
          <mxGeometry x="1060" y="340" width="120" height="60" as="geometry" />
        </mxCell>
        <mxCell id="EKV1BVhTPsgdHMp3hNBj-35" value="&lt;font style=&quot;font-size: 16px;&quot;&gt;&lt;b&gt;1&lt;/b&gt;&lt;/font&gt;" style="text;html=1;align=center;verticalAlign=middle;resizable=0;points=[];autosize=1;strokeColor=none;fillColor=none;" parent="1" vertex="1">
          <mxGeometry x="235" y="130" width="30" height="30" as="geometry" />
        </mxCell>
      </root>
    </mxGraphModel>
  </diagram>
</mxfile>
